<svg viewBox="0 0 1024 1024">
  <path d="M512 0C232 0 5 226.64 4.97250989 506.66666667s226.99620754 507.02749011 507.02749011 507.02749011 507.02749011-226.99620754 507.02749011-507.02749011S792.03128257-0.36082344 512-0.36082344zM701.01984777 685.92623566c-22.86694019 22.84158802-59.9052983 22.84158802-82.74688632 0l-96.51268267-96.51268267-96.51268266 96.51268267c-22.86694019 22.84158802-59.9052983 22.84158802-82.74688632 0-22.84158802-22.86694019-22.84158802-59.9052983 0-82.74688632L439.01339246 506.66666667l-96.53803365-96.51268267c-22.84158802-22.86694019-22.84158802-59.9052983 0-82.74688632 22.86694019-22.84158802 59.9052983-22.84158802 82.74688632 0l96.51268267 96.51268267 96.51268266-96.51268267c22.86694019-22.84158802 59.9052983-22.86694019 82.74688633 0 22.84158802 22.86694019 22.84158802 59.9052983 0 82.74688632L604.48181413 506.66666667l96.53803364 96.51268267C723.86143696 626.04628952 723.88678795 663.08464763 701.01984777 685.92623566z" />
</svg>
